<?xml version="1.0" encoding="iso-8859-1" standalone="no"?> 
<?xml-stylesheet href="demo.css" type="text/css"?> 
<svg xmlns="http://www.w3.org/2000/svg" xmlns:xlink="http://www.w3.org/1999/xlink" width="209.41954pt" height="182.06085pt" viewBox="-1.8476 6.09888 209.41954 182.06085 "> 
<g transform="translate(0, 188.15973 ) scale(1,-1) translate(0,-6.09888 )"> 
 <g stroke="#000" fill="#000">
 <g stroke-width="0.4">
 <g stroke-width="0.2">
 <g stroke="#808080" fill="#808080">
 <path d=" M 48.74878 97.33217 L 48.74878 101.59982 M 73.12317 97.33217 L 73.12317 101.59982 M 97.49756 97.33217 L 97.49756 101.59982 M 121.87195 97.33217 L 121.87195 101.59982 M 146.24634 97.33217 L 146.24634 101.59982 M 170.62073 97.33217 L 170.62073 101.59982 M 194.99512 97.33217 L 194.99512 101.59982  " fill="none"/>
 </g>
 </g>
 <g stroke-width="0.2">
 <g stroke="#808080" fill="#808080">
 <path d=" M 22.2405 13.07074 L 26.50827 13.07074 M 22.2405 56.26837 L 26.50827 56.26837 M 22.2405 142.66364 L 26.50827 142.66364  " fill="none"/>
 </g>
 </g>
 <path d=" M 0.0 99.466 L 192.99515 99.466  " fill="none"/>
 <g transform="translate(192.99515,99.466)">
 <path d=" M 1.99997 0.0 L -1.19998 1.59998 L 0.0 0.0 L -1.19998 -1.59998  " stroke="none"/>
  </g>
 <path d=" M 24.37439 13.07074 L 24.37439 173.06189  " fill="none"/>
 <g transform="matrix(0.0,1.0,-1.0,0.0,24.37439,173.06189)">
 <path d=" M 1.99997 0.0 L -1.19998 1.59998 L 0.0 0.0 L -1.19998 -1.59998  " stroke="none"/>
  </g>
 <g transform="translate(46.24878,87.35477)">
 <g fill="#000">
 <text style="stroke:none" transform="scale(1,-1) translate(2.5,0)" text-anchor="middle"  font-size="10"> 
<g fill="#000">
 <g stroke="none"> 1</g> </g>
 </text> 
</g>
 </g>
 <g transform="translate(70.62317,87.35477)">
 <g fill="#000">
 <text style="stroke:none" transform="scale(1,-1) translate(2.5,0)" text-anchor="middle"  font-size="10"> 
<g fill="#000">
 <g stroke="none"> 2</g> </g>
 </text> 
</g>
 </g>
 <g transform="translate(94.99756,87.35477)">
 <g fill="#000">
 <text style="stroke:none" transform="scale(1,-1) translate(2.5,0)" text-anchor="middle"  font-size="10"> 
<g fill="#000">
 <g stroke="none"> 3</g> </g>
 </text> 
</g>
 </g>
 <g transform="translate(119.37195,87.35477)">
 <g fill="#000">
 <text style="stroke:none" transform="scale(1,-1) translate(2.5,0)" text-anchor="middle"  font-size="10"> 
<g fill="#000">
 <g stroke="none"> 4</g> </g>
 </text> 
</g>
 </g>
 <g transform="translate(143.74634,87.35477)">
 <g fill="#000">
 <text style="stroke:none" transform="scale(1,-1) translate(2.5,0)" text-anchor="middle"  font-size="10"> 
<g fill="#000">
 <g stroke="none"> 5</g> </g>
 </text> 
</g>
 </g>
 <g transform="translate(168.12073,87.35477)">
 <g fill="#000">
 <text style="stroke:none" transform="scale(1,-1) translate(2.5,0)" text-anchor="middle"  font-size="10"> 
<g fill="#000">
 <g stroke="none"> 6</g> </g>
 </text> 
</g>
 </g>
 <g transform="translate(192.49512,87.35477)">
 <g fill="#000">
 <text style="stroke:none" transform="scale(1,-1) translate(2.5,0)" text-anchor="middle"  font-size="10"> 
<g fill="#000">
 <g stroke="none"> 7</g> </g>
 </text> 
</g>
 </g>
 <g transform="translate(1.48538,10.26518)">
 <g fill="#000">
 <text style="stroke:none" transform="scale(1,-1) translate(8.61107,0)" text-anchor="middle"  font-size="10"> 
<g fill="#000">
 <g stroke="none">  − 4</g> </g>
 </text> 
</g>
 </g>
 <g transform="translate(1.48538,53.46281)">
 <g fill="#000">
 <text style="stroke:none" transform="scale(1,-1) translate(8.61107,0)" text-anchor="middle"  font-size="10"> 
<g fill="#000">
 <g stroke="none">  − 2</g> </g>
 </text> 
</g>
 </g>
 <g transform="translate(13.70752,139.44142)">
 <g fill="#000">
 <text style="stroke:none" transform="scale(1,-1) translate(2.5,0)" text-anchor="middle"  font-size="10"> 
<g fill="#000">
 <g stroke="none"> 2 </g> </g>
 </text> 
</g>
 </g>
 <clipPath id="pgfcp1"><path d=" M 0.0 13.07074 L 194.99512 13.07074 L 194.99512 175.06186 L 0.0 175.06186 Z  "/> </clipPath>
 <g clip-path="url(#pgfcp1)">
 <g stroke-width="1.2">
 <g stroke="#000080" fill="#000080">
 <path d=" M 24.61813 0.0 C 24.61813 0.0 25.86153 36.93642 26.33908 45.07585 C 26.81664 53.21529 27.58247 55.62991 28.06003 58.66345 C 28.53758 61.69699 29.30344 64.96301 29.78099 66.93948 C 30.25854 68.91595 31.02438 71.43216 31.50194 72.90852 C 31.97949 74.38489 32.74535 76.39948 33.2229 77.58014 C 33.70045 78.7608 34.4663 80.43344 34.94385 81.41803 C 35.4214 82.40262 36.18724 83.83173 36.6648 84.67642 C 37.14235 85.52112 37.9082 86.76631 38.38576 87.50609 C 38.86331 88.24586 39.62915 89.3502 40.1067 90.00832 C 40.58426 90.66643 41.35011 91.65692 41.82767 92.2494 C 42.30522 92.84189 43.07106 93.73895 43.54861 94.27861 C 44.02617 94.81827 44.79202 95.64362 45.26958 96.13892 C 45.74713 96.63422 46.51297 97.39146 46.99052 97.84846 C 47.46808 98.30547 48.23392 99.00826 48.71147 99.43274 C 49.18903 99.85722 49.95488 100.51164 50.43243 100.90793 C 50.90999 101.30421 51.67583 101.91707 52.15338 102.28897 C 52.63094 102.66087 53.39677 103.2382 53.87433 103.58835 C 54.35188 103.93849 55.11774 104.48187 55.59529 104.81256 C 56.07285 105.14325 56.83868 105.6585 57.31624 105.97177 C 57.7938 106.28505 58.55963 106.77278 59.03719 107.07051 C 59.51474 107.36824 60.28058 107.83397 60.75813 108.11761 C 61.23569 108.40126 62.00153 108.84406 62.47908 109.11484 C 62.95663 109.38562 63.72249 109.81001 64.20004 110.06929 C 64.6776 110.32857 65.44344 110.73514 65.92099 110.98357 C 66.39854 111.232 67.16438 111.62132 67.64194 111.85983 C 68.11949 112.09834 68.88533 112.47331 69.36288 112.70262 C 69.84044 112.93193 70.60628 113.29184 71.08383 113.51257 C 71.56139 113.7333 72.32724 114.08034 72.8048 114.29358 C 73.28235 114.50682 74.04819 114.84361 74.52574 115.04955 C 75.0033 115.25548 75.76913 115.57901 76.24669 115.77786 C 76.72424 115.97672 77.49008 116.29033 77.96764 116.48283 C 78.44519 116.67534 79.21103 116.97876 79.68858 117.16536 C 80.16614 117.35196 80.93199 117.64684 81.40955 117.8278 C 81.8871 118.00877 82.65294 118.2942 83.1305 118.46971 C 83.60805 118.64522 84.37389 118.92226 84.85144 119.09283 C 85.329 119.26341 86.09483 119.53336 86.57239 119.69913 C 87.04994 119.8649 87.81578 120.1263 88.29333 120.28769 C 88.77089 120.44908 89.53674 120.70517 90.0143 120.86243 C 90.49185 121.01968 91.25769 121.26814 91.73524 121.42119 C 92.2128 121.57423 92.97864 121.81625 93.45619 121.96548 C 93.93375 122.11472 94.69958 122.35103 95.17714 122.49681 C 95.6547 122.6426 96.42053 122.87401 96.89809 123.01627 C 97.37564 123.15852 98.1415 123.38313 98.61905 123.52211 C 99.0966 123.66109 99.86244 123.88228 100.34 124.01802 C 100.81755 124.15376 101.58339 124.36787 102.06094 124.50053 C 102.5385 124.6332 103.30434 124.84424 103.78189 124.9742 C 104.25945 125.10416 105.02528 125.31003 105.50284 125.43727 C 105.9804 125.56451 106.74625 125.76674 107.2238 125.89128 C 107.70135 126.01582 108.4672 126.21304 108.94475 126.33492 C 109.4223 126.45679 110.18814 126.65051 110.6657 126.76971 C 111.14325 126.88892 111.90909 127.07689 112.38664 127.19412 C 112.8642 127.31136 113.63004 127.49956 114.10759 127.61465 C 114.58514 127.72975 115.351 127.911 115.82855 128.02373 C 116.3061 128.13646 117.07195 128.31662 117.5495 128.4272 C 118.02705 128.53778 118.7929 128.7121 119.27045 128.82072 C 119.748 128.92935 120.51384 129.10294 120.9914 129.21016 C 121.46895 129.31738 122.23479 129.48842 122.71234 129.59354 C 123.1899 129.69865 123.95575 129.86485 124.4333 129.96785 C 124.91086 130.07085 125.6767 130.23457 126.15425 130.33589 C 126.6318 130.43721 127.39764 130.59837 127.8752 130.6981 C 128.35275 130.79784 129.11859 130.95671 129.59615 131.0547 C 130.0737 131.1527 130.83954 131.30798 131.3171 131.40439 C 131.79465 131.5008 132.5605 131.65451 133.03806 131.74953 C 133.51561 131.84454 134.28145 131.99582 134.759 132.08928 C 135.23656 132.18274 136.0024 132.33127 136.47995 132.4232 C 136.9575 132.51514 137.72334 132.66138 138.2009 132.75194 C 138.67845 132.8425 139.44429 132.98662 139.92184 133.07591 C 140.3994 133.1652 141.16525 133.30746 141.6428 133.39557 C 142.12036 133.48367 142.8862 133.6242 143.36375 133.71092 C 143.84131 133.79764 144.60715 133.9353 145.0847 134.02065 C 145.56226 134.10599 146.3281 134.24185 146.80565 134.32605 C 147.2832 134.41025 148.04904 134.54445 148.5266 134.62758 C 149.00415 134.71071 149.77 134.84322 150.24756 134.9252 C 150.72511 135.00719 151.49095 135.13762 151.9685 135.21852 C 152.44606 135.29942 153.2119 135.4286 153.68945 135.50838 C 154.167 135.58815 154.93285 135.71478 155.4104 135.79347 C 155.88795 135.87216 156.6538 135.99802 157.13135 136.07556 C 157.6089 136.1531 158.37476 136.27583 158.85231 136.35245 C 159.32986 136.42906 160.0957 136.55203 160.57326 136.62784 C 161.05081 136.70364 161.81665 136.82411 162.2942 136.89891 C 162.77176 136.97371 163.5376 137.09311 164.01515 137.16695 C 164.4927 137.24078 165.25854 137.35832 165.7361 137.4311 C 166.21365 137.50389 166.9795 137.61948 167.45706 137.69157 C 167.93462 137.76367 168.70045 137.87938 169.17801 137.95076 C 169.65556 138.02214 170.4214 138.1358 170.89896 138.20607 C 171.37651 138.27634 172.14235 138.38774 172.6199 138.45726 C 173.09746 138.52678 173.8633 138.63823 174.34085 138.70715 C 174.8184 138.77608 175.58426 138.88622 176.06181 138.95403 C 176.53937 139.02184 177.3052 139.12878 177.78276 139.19594 C 178.26031 139.26309 179.02615 139.3714 179.50371 139.43806 C 179.98126 139.50473 180.7471 139.6108 181.22466 139.67651 C 181.70221 139.74223 182.46805 139.84685 182.9456 139.91173 C 183.42316 139.97661 184.18901 140.0799 184.66656 140.14413 C 185.14412 140.20837 185.90996 140.31097 186.38751 140.3748 C 186.86507 140.43863 187.6309 140.54099 188.10846 140.60419 C 188.58601 140.66739 189.35185 140.76808 189.8294 140.83032 C 190.30696 140.89256 191.0728 140.99127 191.55035 141.0528 C 192.02791 141.11432 192.79376 141.21259 193.27132 141.27374 C 193.74887 141.3349 194.99226 141.49362 194.99226 141.49362  " fill="none"/>
 </g>
 </g>
 <g stroke-width="1.2">
 <g stroke="#008000" fill="#008000">
 <path d=" M 73.12317 99.466 L 73.12317 114.43398  " fill="none"/>
 </g>
 </g>
 <g stroke-width="1.2">
 <g stroke="#c60" fill="#c60">
 <path d=" M 97.49756 99.466 L 97.49756 123.2031  " fill="none"/>
 </g>
 </g>
 <g stroke-width="1.2">
 <g stroke="#008000" fill="#008000">
 <path d=" M 170.62073 99.466 L 170.62073 114.43398  " fill="none"/>
 </g>
 </g>
 <g stroke-width="1.2">
 <g stroke="#c60" fill="#c60">
 <path d=" M 170.62073 114.43398 L 170.62073 138.17108  " fill="none"/>
 </g>
 </g>
 </g>
 <g transform="translate(198.5237,97.31061)">
 <g fill="#000">
 <text style="stroke:none" transform="scale(1,-1) translate(2.85764,0)" text-anchor="middle"  font-size="10"> 
<g fill="#000">
 <g stroke="none"> x </g> </g>
 </text> 
</g>
 </g>
 <g transform="translate(21.74153,180.52121)">
 <g fill="#000">
 <text style="stroke:none" transform="scale(1,-1) translate(2.6308,0)" text-anchor="middle"  font-size="10"> 
<g fill="#000">
 <g stroke="none"> y </g> </g>
 </text> 
</g>
 </g>
 </g>
 </g>
                                                 </g> 
</svg> 
